<?xml version="1.0" encoding="UTF-8"?>
<svg xmlns="http://www.w3.org/2000/svg" viewBox="0 0 48 48" width="48px" height="48px">
<g id="surface5848246">
<path style=" stroke:none;fill-rule:nonzero;fill:rgb(90.588236%,29.803923%,23.529412%);fill-opacity:1;" d="M 28.144531 8.058594 L 37.898438 15.511719 L 35.660156 33.539062 L 15.945312 39.390625 L 11.859375 26.589844 L 9.347656 10.671875 L 28.144531 8.058594 M 28.941406 5 L 6 8.183594 L 9.015625 27.265625 L 14.039062 43 L 38.316406 35.800781 L 41 14.203125 Z M 28.941406 5 "/>
<path style=" stroke:none;fill-rule:nonzero;fill:rgb(90.588236%,29.803923%,23.529412%);fill-opacity:1;" d="M 29.277344 16.546875 L 24.257812 11.191406 L 8.84375 13.375 L 9.851562 25.59375 L 15.042969 41.324219 L 36.648438 34.464844 L 39.496094 14.714844 Z M 13.332031 33.507812 L 11.988281 29.199219 L 19.839844 27.671875 L 21.945312 31.5 Z M 21.277344 24.703125 C 21.183594 24.992188 19.171875 21.257812 19.171875 21.257812 L 11.894531 22.695312 L 10.359375 19.160156 L 24.535156 16.761719 L 29.609375 22.886719 C 29.605469 22.886719 21.371094 24.414062 21.277344 24.703125 Z M 21.277344 24.703125 "/>
</g>
</svg>
